PathFileType	4	(X/Y/Z)	E:\Qualisys_Data\Carbon_Farble_Plate\Data\Amateur_Runner\S1\T2\S1T2V22_c3d.trc
DataRate	CameraRate	NumFrames	NumMarkers	Units	OrigDataRate	OrigDataStartFrame	OrigNumFrames
200.000000	200.000000	5	39	mm	200.000000	76	304
Frame#	Time	LSHO			RSHO			LICST			RICST			LASIS			LHEEL			RASIS			LTROC			RTROC			SACR			LTH1			LSK4			LTH2			LTH3			RHM5			LSK2			LTH4			RTH1			LTOE			RTH2			RTH3			RTH4			LLEP			RLEP			LSK1			LSK3			RSK1			LHM5			RSK2			LFT1			RSK3			RSK4			LLME			RLME			RTOE			RHEEL			RFT1			RFT2			LFT2			
		X1	Y1	Z1	X2	Y2	Z2	X3	Y3	Z3	X4	Y4	Z4	X5	Y5	Z5	X6	Y6	Z6	X7	Y7	Z7	X8	Y8	Z8	X9	Y9	Z9	X10	Y10	Z10	X11	Y11	Z11	X12	Y12	Z12	X13	Y13	Z13	X14	Y14	Z14	X15	Y15	Z15	X16	Y16	Z16	X17	Y17	Z17	X18	Y18	Z18	X19	Y19	Z19	X20	Y20	Z20	X21	Y21	Z21	X22	Y22	Z22	X23	Y23	Z23	X24	Y24	Z24	X25	Y25	Z25	X26	Y26	Z26	X27	Y27	Z27	X28	Y28	Z28	X29	Y29	Z29	X30	Y30	Z30	X31	Y31	Z31	X32	Y32	Z32	X33	Y33	Z33	X34	Y34	Z34	X35	Y35	Z35	X36	Y36	Z36	X37	Y37	Z37	X38	Y38	Z38	X39	Y39	Z39	

77	0.38	-1893.309204101562	1545.336547851562	-575.8758544921875	-1840.759765625	1543.067138671875	-256.991943359375	-1879.932250976562	1075.503784179688	-531.5375366210938	-1880.001098632812	1093.305419921875	-236.7613372802734	-1836.587646484375	1038.689453125	-500.1058959960938	-1641.537475585938	127.2072677612305	-440.1156616210938	-1845.436767578125	1041.538330078125	-239.9915008544922	-1926.4013671875	952.3977661132812	-552.2743530273438	-1975.65185546875	974.9013671875	-213.9743499755859	-1998.613891601562	1101.652465820312	-381.5564880371094	-1759.788330078125	845.1763305664062	-520.4049682617188	-1694.223388671875	294.1307067871094	-473.5950927734375	-1825.514892578125	806.6487426757812	-558.5657958984375	-1714.55615234375	750.6629028320312	-506.9885864257812	-2473.606689453125	226.5335235595703	-268.2082824707031	-1716.846557617188	388.8672790527344	-511.2825317382812	-1789.033813476562	714.9664916992188	-535.207275390625	-1902.501831054688	813.1637573242188	-240.1282348632812	-1413.971069335938	241.2900238037109	-452.9279174804688	-1970.4052734375	839.8736572265625	-211.3474426269531	-1941.512939453125	721.576904296875	-251.9651031494141	-2012.871704101562	749.6395874023438	-228.5908355712891	-1695.216674804688	602.0484008789062	-494.8219299316406	-2068.97509765625	585.1235961914062	-268.2588806152344	-1634.084594726562	403.7947082519531	-507.9711303710938	-1620.40869140625	303.9024658203125	-503.8080444335938	-2232.3349609375	482.9009704589844	-257.3129272460938	-1454.93115234375	176.2392730712891	-516.1318359375	-2274.321533203125	549.186767578125	-279.1210021972656	-1618.7177734375	107.5975036621094	-415.2840881347656	-2313.6064453125	425.6114196777344	-270.5910034179688	-2352.39794921875	489.0833740234375	-304.6828002929688	-1607.697387695312	176.1488494873047	-494.39111328125	-2441.04931640625	376.2095642089844	-282.2944030761719	-2425.19677734375	173.2525634765625	-335.0517578125	-2486.0302734375	419.6815795898438	-334.0931701660156	-2508.84033203125	398.4194030761719	-369.9581909179688	-2519.643310546875	407.2163696289062	-315.948486328125	-1621.562255859375	99.75633239746094	-468.7978210449219
78	0.385	-1872.863647460938	1543.37158203125	-577.0990600585938	-1820.141967773438	1541.93603515625	-257.9873962402344	-1859.1884765625	1074.374267578125	-531.8380737304688	-1860.039794921875	1091.42333984375	-236.9789581298828	-1816.262573242188	1037.982177734375	-500.2065124511719	-1622.069213867188	124.2169876098633	-440.4714050292969	-1825.0	1040.38330078125	-240.0025177001953	-1905.9853515625	950.63037109375	-552.43017578125	-1954.588012695312	972.582275390625	-213.6492462158203	-1977.695678710938	1099.621459960938	-381.2224731445312	-1739.771850585938	839.7677612304688	-519.9171752929688	-1675.139892578125	291.3140563964844	-473.5404968261719	-1807.490478515625	803.8798828125	-559.6273193359375	-1698.525756835938	744.3677978515625	-507.5994873046875	-2456.908935546875	234.7750701904297	-268.0437622070312	-1698.92578125	386.4244995117188	-511.1607971191406	-1772.665649414062	710.657470703125	-537.5745239257812	-1879.926025390625	811.656982421875	-241.2257385253906	-1394.803100585938	240.3668518066406	-452.4503479003906	-1947.966186523438	836.4655151367188	-211.5743865966797	-1917.769653320312	718.2449951171875	-253.20263671875	-1989.021240234375	746.4483642578125	-228.7881317138672	-1678.15234375	598.9700317382812	-494.7874755859375	-2044.290161132812	581.6444091796875	-268.5774841308594	-1616.287719726562	401.7826843261719	-508.2308044433594	-1600.900756835938	301.1181945800781	-503.3453063964844	-2210.75	483.7306823730469	-257.5119018554688	-1436.01611328125	175.9049530029297	-516.0067138671875	-2250.338623046875	551.1170043945312	-279.4475402832031	-1599.232299804688	104.6178894042969	-415.8199768066406	-2292.74267578125	428.0916748046875	-270.7414855957031	-2329.973876953125	493.3606872558594	-305.0927429199219	-1588.540161132812	173.8565673828125	-494.25439453125	-2420.88427734375	383.7733764648438	-282.1225891113281	-2410.59521484375	180.5197296142578	-334.9966735839844	-2465.86767578125	427.3331298828125	-334.3803100585938	-2488.14013671875	406.0777893066406	-368.8988647460938	-2499.419677734375	416.2865905761719	-315.2778930664062	-1601.045166015625	97.1896514892578	-469.0442810058594
79	0.39	-1852.628662109375	1541.246948242188	-578.331787109375	-1800.1005859375	1540.893310546875	-259.290283203125	-1838.220825195312	1072.914916992188	-532.0116577148438	-1839.8115234375	1089.970947265625	-237.1167602539062	-1795.552490234375	1036.5234375	-500.4622802734375	-1603.578002929688	121.1577072143555	-439.6127014160156	-1805.005981445312	1038.59375	-240.9069366455078	-1885.910400390625	949.1752319335938	-552.8171997070312	-1933.991821289062	969.7435913085938	-213.4288330078125	-1957.987182617188	1097.769287109375	-381.1572875976562	-1720.792114257812	834.6142578125	-520.5906982421875	-1656.089965820312	287.4469604492188	-472.249267578125	-1788.757934570312	801.2365112304688	-560.7789306640625	-1682.034301757812	738.79345703125	-508.6375427246094	-2439.632080078125	242.8931121826172	-267.6343994140625	-1679.952880859375	382.92138671875	-510.5826416015625	-1755.615478515625	706.7603149414062	-539.8184204101562	-1857.798950195312	809.4491577148438	-242.6959533691406	-1377.128173828125	238.7445220947266	-452.1930541992188	-1925.694458007812	832.5802001953125	-212.0959320068359	-1893.318115234375	716.390380859375	-253.70947265625	-1966.386962890625	742.3416748046875	-229.4309844970703	-1661.167236328125	596.0133666992188	-494.6197509765625	-2019.27685546875	577.95556640625	-268.4385375976562	-1597.970947265625	398.8020324707031	-506.9801330566406	-1582.443481445312	298.3458557128906	-502.7092590332031	-2186.6103515625	484.1681213378906	-257.3563232421875	-1418.296997070312	174.7776184082031	-516.0450439453125	-2225.4443359375	552.7058715820312	-279.3890991210938	-1580.208129882812	101.4247512817383	-415.6971130371094	-2270.72802734375	430.8148803710938	-271.3106689453125	-2306.828369140625	496.8244323730469	-304.292724609375	-1569.5634765625	171.1403503417969	-493.3374938964844	-2399.55908203125	391.3542785644531	-281.2453918457031	-2394.482666015625	187.2791595458984	-334.7157592773438	-2445.53173828125	435.4808959960938	-334.5935668945312	-2468.6943359375	416.0626220703125	-369.775390625	-2478.321533203125	424.8854064941406	-315.3997802734375	-1582.680297851562	94.63943481445312	-469.1461486816406
80	0.395	-1832.576538085938	1538.488403320312	-579.517578125	-1779.692626953125	1539.18408203125	-260.6524658203125	-1818.21923828125	1071.346313476562	-532.399658203125	-1820.671875	1087.421142578125	-237.1174468994141	-1775.293212890625	1035.332397460938	-500.4044494628906	-1586.051391601562	117.9675445556641	-438.7777404785156	-1784.568603515625	1036.499877929688	-241.2395324707031	-1866.086791992188	947.7932739257812	-553.7039184570312	-1912.183959960938	967.0294189453124	-212.3043975830078	-1938.340698242188	1095.532470703125	-381.96337890625	-1702.143432617188	831.0205688476562	-521.8998413085938	-1639.360595703125	284.4217529296875	-472.2811889648438	-1770.27734375	798.4031372070312	-561.8885498046875	-1664.649291992188	734.0870971679688	-509.6115112304688	-2422.45947265625	250.5224151611328	-267.3857727050781	-1661.982421875	379.2179565429688	-509.9334716796875	-1739.065307617188	703.9534912109375	-540.7144165039062	-1834.709228515625	806.4893798828125	-242.0682983398438	-1359.793823242188	235.5191955566406	-452.3770446777344	-1903.513793945312	829.3236083984375	-212.859619140625	-1870.32958984375	713.4573974609375	-254.03271484375	-1942.001708984375	738.460693359375	-229.7508239746094	-1643.734985351562	593.2068481445312	-494.4992065429688	-1994.472778320312	573.6627807617188	-268.8977355957031	-1580.667724609375	395.0272827148438	-506.9028015136719	-1564.817138671875	295.1051330566406	-501.4891357421875	-2164.161865234375	483.8256225585938	-258.1121520996094	-1401.83203125	172.3162231445312	-516.40673828125	-2200.421875	553.37451171875	-278.8883972167969	-1561.846923828125	97.88648986816406	-414.2735290527344	-2249.048583984375	433.6637268066406	-271.9283752441406	-2283.043212890625	500.6904602050781	-304.5412902832031	-1552.854614257812	168.2801818847656	-492.656982421875	-2379.909423828125	397.2439575195312	-283.2674255371094	-2377.7734375	193.8385009765625	-334.1988220214844	-2424.025390625	443.3619995117188	-335.1598205566406	-2447.18896484375	423.8631591796875	-369.6292114257812	-2455.957763671875	433.1465454101562	-315.0499572753906	-1565.384765625	91.42789459228516	-468.1470642089844
81	0.4	-1812.386840820312	1535.53076171875	-580.5128784179688	-1759.43994140625	1537.380126953125	-261.8563842773438	-1799.068969726562	1069.306640625	-532.4559936523438	-1800.230834960938	1085.296752929688	-237.1553344726562	-1754.693115234375	1033.88330078125	-500.7821044921875	-1569.535766601562	113.5299911499023	-436.9363708496094	-1763.9697265625	1033.95703125	-241.8171997070312	-1845.479370117188	945.3126831054688	-553.4815063476562	-1891.673828125	963.6315307617188	-212.2776489257812	-1917.890258789062	1092.870239257812	-381.429443359375	-1682.957275390625	828.0707397460938	-522.4857788085938	-1622.60498046875	280.9176025390625	-472.3346862792969	-1751.789184570312	796.2116088867188	-563.3128662109375	-1645.65869140625	731.1258544921875	-511.1350402832031	-2403.2451171875	258.2894897460938	-267.4159851074219	-1645.65625	375.7786865234375	-510.6470031738281	-1721.191162109375	701.5904541015625	-540.6498413085938	-1811.78662109375	804.4673461914062	-243.1034545898438	-1343.253662109375	231.704833984375	-452.6046447753906	-1881.444091796875	826.2828369140625	-213.4462890625	-1845.964111328125	709.7288818359375	-253.9648590087891	-1917.924560546875	734.3397827148438	-229.754150390625	-1626.295166015625	590.1851196289062	-494.542724609375	-1968.619262695312	569.7909545898438	-268.8715209960938	-1563.584716796875	391.533447265625	-505.5833435058594	-1547.970703125	291.3514099121094	-500.5133361816406	-2140.83984375	483.308349609375	-258.9718017578125	-1386.600952148438	169.1959838867188	-516.6280517578125	-2174.1982421875	554.0459594726562	-278.5791625976562	-1545.532470703125	94.45640563964844	-413.447265625	-2226.207763671875	435.3928833007812	-272.7183837890625	-2258.589599609375	503.6991271972656	-304.1343688964844	-1536.810302734375	164.4001617431641	-491.3877868652344	-2358.023681640625	403.5098876953125	-282.6141662597656	-2360.791748046875	200.3773803710938	-334.248291015625	-2401.747802734375	450.3695068359375	-335.2390747070312	-2425.3076171875	431.7475891113281	-369.8457641601562	-2433.69677734375	441.5790405273438	-315.0500793457031	-1550.142578125	88.10851287841797	-467.2312622070312
